<svg width="337" height="62" viewBox="0 0 337 62" fill="none" xmlns="http://www.w3.org/2000/svg">
<path d="M26.1719 25.3926C25.6836 21.7793 23.0957 19.4844 19.1406 19.4844C13.916 19.4844 10.7422 23.4395 10.7422 30.3242C10.7422 37.4531 14.0137 41.1641 19.0918 41.1641C22.9004 41.1641 25.5371 39.1133 26.1719 35.6465L34.5703 35.6953C33.8867 41.9941 28.5156 48.4883 18.9453 48.4883C9.375 48.4883 2.24609 41.9453 2.24609 30.3242C2.24609 18.6543 9.52148 12.1602 18.9453 12.1602C27.4414 12.1602 33.6914 16.9453 34.5703 25.3926H26.1719ZM39.4043 48V12.6484H47.7051V26.9062H61.9141V12.6484H70.2148V48H61.9141V33.6934H47.7051V48H39.4043ZM75.5859 48V12.6484H100.049V19.4355H83.8867V26.9062H98.7793V33.6934H83.8867V41.2129H100.098V48H75.5859ZM128.857 25.3926C128.369 21.7793 125.781 19.4844 121.826 19.4844C116.602 19.4844 113.428 23.4395 113.428 30.3242C113.428 37.4531 116.699 41.1641 121.777 41.1641C125.586 41.1641 128.223 39.1133 128.857 35.6465L137.256 35.6953C136.572 41.9941 131.201 48.4883 121.631 48.4883C112.061 48.4883 104.932 41.9453 104.932 30.3242C104.932 18.6543 112.207 12.1602 121.631 12.1602C130.127 12.1602 136.377 16.9453 137.256 25.3926H128.857ZM142.09 48V12.6484H150.391V27.7363H150.879L162.744 12.6484H172.607L159.961 28.4199L172.803 48H162.842L153.906 33.9863L150.391 38.332V48H142.09Z" fill="#3D8DCC"/>
<path d="M310.011 35.6927C310.472 39.3094 313.043 41.6233 316.998 41.6524C322.223 41.6908 325.426 37.7591 325.476 30.8745C325.529 23.7458 322.284 20.0109 317.206 19.9736C313.398 19.9457 310.746 21.977 310.086 25.439L301.688 25.3285C302.418 19.0349 307.837 12.5804 317.407 12.6507C326.977 12.721 334.057 19.3162 333.972 30.937C333.886 42.6066 326.563 49.0471 317.14 48.9778C308.644 48.9154 302.429 44.0845 301.612 35.631L310.011 35.6927ZM296.945 12.9886L296.685 48.3392L288.384 48.2783L288.489 34.0208L274.281 33.9164L274.176 48.1738L265.875 48.1129L266.135 12.7623L274.436 12.8232L274.33 27.1295L288.539 27.2339L288.644 12.9276L296.945 12.9886ZM260.764 12.7228L260.504 48.0734L236.042 47.8936L236.092 41.1067L252.254 41.2255L252.309 33.755L237.416 33.6456L237.466 26.8586L252.358 26.968L252.414 19.4487L236.203 19.3296L236.253 12.5427L260.764 12.7228ZM207.328 34.9382C207.79 38.555 210.361 40.8688 214.316 40.8979C219.54 40.9363 222.743 37.0046 222.793 30.12C222.846 22.9913 219.602 19.2565 214.524 19.2191C210.715 19.1912 208.063 21.2225 207.403 24.6845L199.005 24.574C199.735 18.2804 205.154 11.8259 214.724 11.8962C224.294 11.9665 231.375 18.5617 231.289 30.1825C231.204 41.8521 223.881 48.2926 214.457 48.2233C205.961 48.1609 199.747 43.33 198.93 34.8765L207.328 34.9382ZM194.262 12.2341L194.002 47.5847L185.702 47.5238L185.813 32.4363L185.324 32.4327L173.348 47.433L163.485 47.3605L176.248 31.6824L163.55 12.0085L173.511 12.0817L182.343 26.1606L185.89 21.8409L185.961 12.1731L194.262 12.2341Z" fill="#3D8DCC"/>
</svg>
