<svg width="100%" height="100%" viewBox="0 0 258 179" fill="none" xmlns="http://www.w3.org/2000/svg">
<path d="M28.9566 116.57C28.9566 117.26 29.0925 117.943 29.3566 118.581C29.62 119.219 30.007 119.798 30.4946 120.286C30.9822 120.774 31.5612 121.161 32.1985 121.425C32.8358 121.689 33.5192 121.824 34.2087 121.824C34.8983 121.824 35.5817 121.689 36.2182 121.425C36.8555 121.161 37.4345 120.774 37.9221 120.286C38.4104 119.798 38.7967 119.219 39.0608 118.581C39.325 117.943 39.4609 117.26 39.4609 116.57C39.4609 115.88 39.325 115.197 39.0608 114.559C38.7967 113.922 38.4104 113.342 37.9221 112.854C37.4345 112.367 36.8555 111.979 36.2182 111.715C35.5817 111.452 34.8983 111.316 34.2087 111.316C33.5192 111.316 32.8358 111.452 32.1985 111.715C31.5612 111.979 30.9822 112.367 30.4946 112.854C30.007 113.342 29.62 113.922 29.3566 114.559C29.0925 115.197 28.9566 115.88 28.9566 116.57Z" fill="#004261"/>
<path d="M255.201 127.475C224.677 115.28 195.2 130.324 163.984 146.249C148.376 154.214 132.23 162.447 115.529 167.377C68.8583 181.164 31.631 142.961 31.0874 142.394C29.4703 140.692 26.7766 140.625 25.0735 142.235C23.3704 143.856 23.2975 146.553 24.9177 148.255C26.3136 149.725 54.6 178.969 94.4894 178.969C101.934 178.969 109.784 177.949 117.94 175.543C135.394 170.387 151.899 161.972 167.855 153.829C197.303 138.812 225.119 124.622 252.048 135.381C254.229 136.252 256.705 135.191 257.575 133.003C258.446 130.821 257.383 128.347 255.201 127.475Z" fill="url(#paint0_linear_2268_135)"/>
<path d="M77.2173 95.679C67.1936 107.242 62.9067 121.645 67.8594 131.997C68.5904 133.526 70.1138 134.418 71.7002 134.418C72.316 134.418 72.9403 134.285 73.5354 134.002C75.6547 132.985 76.5515 130.446 75.538 128.321C70.5354 117.866 80.8001 99.5447 96.6602 90.6193C100.732 88.3277 105.09 85.95 109.705 83.4317C135.518 69.3406 167.023 52.1405 180.744 32.4144C185.949 42.9731 192.714 66.6326 167.4 91.9591C165.736 93.6239 165.736 96.3189 167.4 97.9814C169.064 99.6408 171.755 99.6408 173.414 97.9814C180.689 90.6977 185.623 83.4739 188.838 76.5382C192.072 84.2775 194.755 99.0761 178.968 114.874C177.304 116.534 177.304 119.232 178.968 120.889C179.795 121.722 180.886 122.137 181.973 122.137C183.063 122.137 184.152 121.722 184.979 120.889C212.368 93.4887 193.473 67.0489 192.569 65.8236C198.53 40.8112 184.277 21.7512 184.071 21.4861C183.164 20.313 181.71 19.6961 180.247 19.8521C178.773 20.0111 177.486 20.9246 176.854 22.2636C167.413 42.224 133.152 60.9276 105.623 75.9559C100.984 78.4865 96.6033 80.8803 92.4846 83.1951C89.4584 84.899 86.6297 86.8657 84.0266 89.0199C81.0343 87.8982 73.9877 85.4452 65.4237 83.7236C62.886 77.6361 66.1279 66.2945 72.6385 59.554L73.7335 58.4201C86.4008 45.3223 102.937 28.2213 109.866 14.1525C113.553 21.1612 117.071 33.7957 108.282 50.0101C107.164 52.0782 107.932 54.6634 109.996 55.7819C112.063 56.9036 114.645 56.1361 115.765 54.0703C132.445 23.2861 111.863 2.21007 111.655 1.99942C110.537 0.886009 108.894 0.482835 107.388 0.948467C105.88 1.41932 104.757 2.68354 104.469 4.23654C102.126 16.8191 81.3591 38.2937 67.6206 52.5046L66.5233 53.6385C59.6464 60.7563 54.9425 72.6963 56.3077 82.3085C41.2585 80.7083 24.4831 82.844 16.704 97.4582C13.3239 98.4262 6.65194 100.84 1.59476 105.9C-0.0666599 107.56 -0.0666599 110.257 1.59476 111.916C2.42681 112.746 3.51355 113.163 4.60299 113.163C5.68981 113.163 6.7794 112.746 7.61099 111.916C12.6397 106.883 20.3928 105.297 20.458 105.284C21.8202 105.018 22.9697 104.11 23.5364 102.844C32.2907 83.2473 64.6021 91.5535 77.2173 95.679Z" fill="url(#paint1_linear_2268_135)"/>
<defs>
<linearGradient id="paint0_linear_2268_135" x1="98.5207" y1="64.3944" x2="285.68" y2="174.87" gradientUnits="userSpaceOnUse">
<stop stop-color="#A1E1FF"/>
<stop offset="1" stop-color="#ACFCC7"/>
</linearGradient>
<linearGradient id="paint1_linear_2268_135" x1="113" y1="-49.5" x2="59.5" y2="126.5" gradientUnits="userSpaceOnUse">
<stop stop-color="#9E86FC"/>
<stop offset="1" stop-color="#A1E1FF"/>
</linearGradient>
</defs>
</svg>
